{
  "accessors": [
    {
      "bufferView": 2,
      "componentType": 5126,
      "count": 4007,
      "max": [
        0.027965998277068138,
        0.05000000447034836,
        0.0461176298558712
      ],
      "min": [
        -0.027965998277068138,
        -0.05000000447034836,
        -0.0461176298558712
      ],
      "type": "VEC3"
    },
    {
      "bufferView": 2,
      "byteOffset": 48084,
      "componentType": 5126,
      "count": 4007,
      "max": [
        1.0,
        1.0,
        1.0
      ],
      "min": [
        -1.0,
        -1.0,
        -1.0
      ],
      "type": "VEC3"
    },
    {
      "bufferView": 1,
      "componentType": 5126,
      "count": 4007,
      "max": [
        1.0,
        0.763249933719635
      ],
      "min": [
        0.0,
        0.0
      ],
      "type": "VEC2"
    },
    {
      "bufferView": 0,
      "componentType": 5125,
      "count": 18225,
      "type": "SCALAR"
    },
    {
      "bufferView": 2,
      "byteOffset": 96168,
      "componentType": 5126,
      "count": 65,
      "max": [
        0.017979372292757034,
        0.03745456412434578,
        0.011276389472186565
      ],
      "min": [
        0.017979372292757034,
        -0.03745456412434578,
        -0.027313075959682465
      ],
      "type": "VEC3"
    },
    {
      "bufferView": 2,
      "byteOffset": 96948,
      "componentType": 5126,
      "count": 65,
      "max": [
        1.0,
        2.9485226704650813e-08,
        0.0
      ],
      "min": [
        0.7071068286895752,
        -0.7071067094802856,
        0.0
      ],
      "type": "VEC3"
    },
    {
      "bufferView": 1,
      "byteOffset": 32056,
      "componentType": 5126,
      "count": 65,
      "max": [
        0.0,
        0.0
      ],
      "min": [
        0.0,
        0.0
      ],
      "type": "VEC2"
    },
    {
      "bufferView": 0,
      "byteOffset": 72900,
      "componentType": 5125,
      "count": 207,
      "type": "SCALAR"
    },
    {
      "bufferView": 2,
      "byteOffset": 97728,
      "componentType": 5126,
      "count": 131,
      "max": [
        0.027141721919178963,
        0.009664894081652164,
        0.02880851924419403
      ],
      "min": [
        0.027141721919178963,
        -0.009664894081652164,
        0.015402858145534992
      ],
      "type": "VEC3"
    },
    {
      "bufferView": 2,
      "byteOffset": 99300,
      "componentType": 5126,
      "count": 131,
      "max": [
        1.0,
        0.003275179537013173,
        0.0012932575773447752
      ],
      "min": [
        0.999993622303009,
        -0.003330183681100607,
        0.0
      ],
      "type": "VEC3"
    },
    {
      "bufferView": 1,
      "byteOffset": 32576,
      "componentType": 5126,
      "count": 131,
      "max": [
        0.0,
        0.0
      ],
      "min": [
        0.0,
        0.0
      ],
      "type": "VEC2"
    },
    {
      "bufferView": 0,
      "byteOffset": 73728,
      "componentType": 5125,
      "count": 426,
      "type": "SCALAR"
    },
    {
      "bufferView": 2,
      "byteOffset": 100872,
      "componentType": 5126,
      "count": 149,
      "max": [
        0.02739887498319149,
        0.024969706311821938,
        0.030727853998541832
      ],
      "min": [
        0.027075905352830887,
        -0.02496970444917679,
        0.013483530841767788
      ],
      "type": "VEC3"
    },
    {
      "bufferView": 2,
      "byteOffset": 102660,
      "componentType": 5126,
      "count": 149,
      "max": [
        1.0,
        0.006547351833432913,
        0.002586498623713851
      ],
      "min": [
        0.9570920467376709,
        -0.2897842526435852,
        0.0
      ],
      "type": "VEC3"
    },
    {
      "bufferView": 1,
      "byteOffset": 33624,
      "componentType": 5126,
      "count": 149,
      "max": [
        0.0,
        0.0
      ],
      "min": [
        0.0,
        0.0
      ],
      "type": "VEC2"
    },
    {
      "bufferView": 0,
      "byteOffset": 75432,
      "componentType": 5125,
      "count": 417,
      "type": "SCALAR"
    },
    {
      "bufferView": 2,
      "byteOffset": 104448,
      "componentType": 5126,
      "count": 48,
      "max": [
        0.017979372292757034,
        0.028678540140390396,
        -0.0020539630204439163
      ],
      "min": [
        0.017979372292757034,
        -0.028678540140390396,
        -0.013982719741761684
      ],
      "type": "VEC3"
    },
    {
      "bufferView": 2,
      "byteOffset": 105024,
      "componentType": 5126,
      "count": 48,
      "max": [
        1.0,
        2.5489292898583926e-09,
        0.0
      ],
      "min": [
        1.0,
        -5.848179353051819e-05,
        0.0
      ],
      "type": "VEC3"
    },
    {
      "bufferView": 1,
      "byteOffset": 34816,
      "componentType": 5126,
      "count": 48,
      "max": [
        0.0,
        0.0
      ],
      "min": [
        0.0,
        0.0
      ],
      "type": "VEC2"
    },
    {
      "bufferView": 0,
      "byteOffset": 77100,
      "componentType": 5125,
      "count": 120,
      "type": "SCALAR"
    },
    {
      "bufferView": 2,
      "byteOffset": 105600,
      "componentType": 5126,
      "count": 357,
      "max": [
        0.027204837650060654,
        0.040439434349536896,
        0.03271595388650894
      ],
      "min": [
        0.02489779144525528,
        0.03543943166732788,
        0.027715953066945076
      ],
      "type": "VEC3"
    },
    {
      "bufferView": 2,
      "byteOffset": 109884,
      "componentType": 5126,
      "count": 357,
      "max": [
        0.9800934791564941,
        0.9976766705513,
        0.9976770281791687
      ],
      "min": [
        0.06812150031328201,
        -0.9976766705513,
        -0.9976767897605896
      ],
      "type": "VEC3"
    },
    {
      "bufferView": 1,
      "byteOffset": 35200,
      "componentType": 5126,
      "count": 357,
      "max": [
        1.0,
        1.0
      ],
      "min": [
        0.0,
        0.010675325989723206
      ],
      "type": "VEC2"
    },
    {
      "bufferView": 0,
      "byteOffset": 77580,
      "componentType": 5125,
      "count": 1050,
      "type": "SCALAR"
    },
    {
      "bufferView": 2,
      "byteOffset": 114168,
      "componentType": 5126,
      "count": 2418,
      "max": [
        0.0010486808605492115,
        0.05059012770652771,
        0.04657866805791855
      ],
      "min": [
        -0.020725499838590622,
        -0.050571564584970474,
        -0.06005844473838806
      ],
      "type": "VEC3"
    },
    {
      "bufferView": 2,
      "byteOffset": 143184,
      "componentType": 5126,
      "count": 2418,
      "max": [
        1.0,
        1.0,
        1.0
      ],
      "min": [
        -1.0,
        -1.0,
        -1.0
      ],
      "type": "VEC3"
    },
    {
      "bufferView": 1,
      "byteOffset": 38056,
      "componentType": 5126,
      "count": 2418,
      "max": [
        1.0,
        0.9059370756149292
      ],
      "min": [
        0.0,
        0.0
      ],
      "type": "VEC2"
    },
    {
      "bufferView": 0,
      "byteOffset": 81780,
      "componentType": 5125,
      "count": 12240,
      "type": "SCALAR"
    }
  ],
  "asset": {
    "extras": {
      "author": "YouniqueĪdeaStudio (https://sketchfab.com/sinnervoncrawsz)",
      "license": "CC-BY-4.0 (http://creativecommons.org/licenses/by/4.0/)",
      "source": "https://sketchfab.com/3d-models/manual-emergency-fire-alarm-button-243dcce1709e465ca7a62ee9d9cb809d",
      "title": "Manual Emergency Fire Alarm Button"
    },
    "generator": "Sketchfab-14.5.0",
    "version": "2.0"
  },
  "bufferViews": [
    {
      "buffer": 0,
      "byteLength": 130740,
      "name": "floatBufferViews",
      "target": 34963
    },
    {
      "buffer": 0,
      "byteLength": 57400,
      "byteOffset": 130740,
      "byteStride": 8,
      "name": "floatBufferViews",
      "target": 34962
    },
    {
      "buffer": 0,
      "byteLength": 172200,
      "byteOffset": 188140,
      "byteStride": 12,
      "name": "floatBufferViews",
      "target": 34962
    }
  ],
  "buffers": [
    {
      "byteLength": 360340,
      "uri": "scene.bin"
    }
  ],
  "extensionsUsed": [
    "KHR_materials_clearcoat",
    "KHR_materials_transmission"
  ],
  "materials": [
    {
      "doubleSided": true,
      "name": "Material.008",
      "pbrMetallicRoughness": {
        "baseColorFactor": [
          0.7342899479471927,
          0.0,
          0.0027545412836962294,
          1.0
        ],
        "metallicFactor": 0.0,
        "roughnessFactor": 0.033977320101992114
      }
    },
    {
      "doubleSided": true,
      "name": "Material.007",
      "pbrMetallicRoughness": {
        "baseColorFactor": [
          0.008621809635851045,
          0.008621809635851045,
          0.008621809635851045,
          1.0
        ],
        "metallicFactor": 0.0
      }
    },
    {
      "doubleSided": true,
      "name": "Material.010",
      "pbrMetallicRoughness": {
        "metallicFactor": 0.0
      }
    },
    {
      "doubleSided": true,
      "name": "Material.009",
      "pbrMetallicRoughness": {
        "baseColorFactor": [
          1.0,
          0.027738620418700673,
          0.035223810294082884,
          1.0
        ],
        "metallicFactor": 0.0
      }
    },
    {
      "doubleSided": true,
      "name": "Material.006",
      "pbrMetallicRoughness": {
        "metallicFactor": 0.0
      }
    },
    {
      "doubleSided": true,
      "name": "Material.013",
      "pbrMetallicRoughness": {
        "baseColorFactor": [
          0.058081093567671854,
          0.002209086720067896,
          0.0036856285827220493,
          1.0
        ],
        "metallicFactor": 0.0,
        "roughnessFactor": 0.02815263157721098
      }
    },
    {
      "alphaMode": "BLEND",
      "doubleSided": true,
      "extensions": {
        "KHR_materials_clearcoat": {
          "clearcoatFactor": 1.0,
          "clearcoatRoughnessFactor": 0.0
        },
        "KHR_materials_transmission": {
          "transmissionFactor": 0.9427239257988833
        }
      },
      "name": "Material.011",
      "pbrMetallicRoughness": {
        "baseColorFactor": [
          0.0,
          0.0,
          0.0,
          0.25
        ],
        "metallicFactor": 0.0,
        "roughnessFactor": 0.0
      }
    }
  ],
  "meshes": [
    {
      "name": "galena_Material.008_0",
      "primitives": [
        {
          "attributes": {
            "NORMAL": 1,
            "POSITION": 0,
            "TEXCOORD_0": 2
          },
          "indices": 3,
          "material": 0,
          "mode": 4
        }
      ]
    },
    {
      "name": "galena_Material.007_0",
      "primitives": [
        {
          "attributes": {
            "NORMAL": 5,
            "POSITION": 4,
            "TEXCOORD_0": 6
          },
          "indices": 7,
          "material": 1,
          "mode": 4
        }
      ]
    },
    {
      "name": "galena_Material.010_0",
      "primitives": [
        {
          "attributes": {
            "NORMAL": 9,
            "POSITION": 8,
            "TEXCOORD_0": 10
          },
          "indices": 11,
          "material": 2,
          "mode": 4
        }
      ]
    },
    {
      "name": "galena_Material.009_0",
      "primitives": [
        {
          "attributes": {
            "NORMAL": 13,
            "POSITION": 12,
            "TEXCOORD_0": 14
          },
          "indices": 15,
          "material": 3,
          "mode": 4
        }
      ]
    },
    {
      "name": "galena_Material.006_0",
      "primitives": [
        {
          "attributes": {
            "NORMAL": 17,
            "POSITION": 16,
            "TEXCOORD_0": 18
          },
          "indices": 19,
          "material": 4,
          "mode": 4
        }
      ]
    },
    {
      "name": "galena_Material.013_0",
      "primitives": [
        {
          "attributes": {
            "NORMAL": 21,
            "POSITION": 20,
            "TEXCOORD_0": 22
          },
          "indices": 23,
          "material": 5,
          "mode": 4
        }
      ]
    },
    {
      "name": "galena.001_Material.011_0",
      "primitives": [
        {
          "attributes": {
            "NORMAL": 25,
            "POSITION": 24,
            "TEXCOORD_0": 26
          },
          "indices": 27,
          "material": 6,
          "mode": 4
        }
      ]
    }
  ],
  "nodes": [
    {
      "children": [
        1
      ],
      "matrix": [
        1.0,
        0.0,
        0.0,
        0.0,
        0.0,
        2.220446049250313e-16,
        -1.0,
        0.0,
        0.0,
        1.0,
        2.220446049250313e-16,
        0.0,
        0.0,
        0.0,
        0.0,
        1.0
      ],
      "name": "Sketchfab_model"
    },
    {
      "children": [
        2
      ],
      "matrix": [
        0.009999999776482582,
        0.0,
        0.0,
        0.0,
        0.0,
        0.0,
        0.009999999776482582,
        0.0,
        0.0,
        -0.009999999776482582,
        0.0,
        0.0,
        0.0,
        0.0,
        0.0,
        1.0
      ],
      "name": "57b96ab0a79e415898b0ca4b2b0a8510.fbx"
    },
    {
      "children": [
        3,
        10
      ],
      "name": "RootNode"
    },
    {
      "children": [
        4,
        5,
        6,
        7,
        8,
        9
      ],
      "matrix": [
        100.0,
        0.0,
        0.0,
        0.0,
        0.0,
        -1.629206793918314e-05,
        -99.99999999999868,
        0.0,
        0.0,
        99.99999999999868,
        -1.629206793918314e-05,
        0.0,
        0.0,
        0.0,
        0.0,
        1.0
      ],
      "name": "galena"
    },
    {
      "mesh": 0,
      "name": "galena_Material.008_0"
    },
    {
      "mesh": 1,
      "name": "galena_Material.007_0"
    },
    {
      "mesh": 2,
      "name": "galena_Material.010_0"
    },
    {
      "mesh": 3,
      "name": "galena_Material.009_0"
    },
    {
      "mesh": 4,
      "name": "galena_Material.006_0"
    },
    {
      "mesh": 5,
      "name": "galena_Material.013_0"
    },
    {
      "children": [
        11
      ],
      "matrix": [
        100.0,
        0.0,
        0.0,
        0.0,
        0.0,
        -1.629206793918314e-05,
        -99.99999999999868,
        0.0,
        0.0,
        99.99999999999868,
        -1.629206793918314e-05,
        0.0,
        2.875713348388672,
        0.15582802891731262,
        0.0,
        1.0
      ],
      "name": "galena.001"
    },
    {
      "mesh": 6,
      "name": "galena.001_Material.011_0"
    }
  ],
  "scene": 0,
  "scenes": [
    {
      "name": "Sketchfab_Scene",
      "nodes": [
        0
      ]
    }
  ]
}
