{
  "accessors": [
    {
      "bufferView": 2,
      "componentType": 5126,
      "count": 37346,
      "max": [
        0.9936015605926514,
        0.9936113357543945,
        0.6082486510276794
      ],
      "min": [
        -0.9935943484306335,
        -0.9936026930809021,
        -0.3535078167915344
      ],
      "type": "VEC3"
    },
    {
      "bufferView": 2,
      "byteOffset": 448152,
      "componentType": 5126,
      "count": 37346,
      "max": [
        0.9999886751174927,
        0.9999897480010986,
        1.0
      ],
      "min": [
        -0.9999943971633911,
        -0.9999926090240479,
        -1.0
      ],
      "type": "VEC3"
    },
    {
      "bufferView": 1,
      "componentType": 5126,
      "count": 37346,
      "max": [
        1.0001994371414185,
        1.0000001192092896
      ],
      "min": [
        -0.00019968683773186058,
        -0.0001829903048928827
      ],
      "type": "VEC2"
    },
    {
      "bufferView": 0,
      "componentType": 5125,
      "count": 198975,
      "type": "SCALAR"
    },
    {
      "bufferView": 2,
      "byteOffset": 896304,
      "componentType": 5126,
      "count": 656,
      "max": [
        0.4118995666503906,
        0.4118918776512146,
        0.6082298755645752
      ],
      "min": [
        -0.4118918478488922,
        -0.41421929001808167,
        0.6082298755645752
      ],
      "type": "VEC3"
    },
    {
      "bufferView": 2,
      "byteOffset": 904176,
      "componentType": 5126,
      "count": 656,
      "max": [
        0.0023194714449346066,
        0.0,
        1.0
      ],
      "min": [
        -0.0010986991692334414,
        0.0,
        0.9999973773956299
      ],
      "type": "VEC3"
    },
    {
      "bufferView": 1,
      "byteOffset": 298768,
      "componentType": 5126,
      "count": 656,
      "max": [
        0.3494632840156555,
        0.3494036793708801
      ],
      "min": [
        0.15059641003608704,
        0.150506854057312
      ],
      "type": "VEC2"
    },
    {
      "bufferView": 0,
      "byteOffset": 795900,
      "componentType": 5125,
      "count": 1968,
      "type": "SCALAR"
    },
    {
      "bufferView": 2,
      "byteOffset": 912048,
      "componentType": 5126,
      "count": 1569,
      "max": [
        0.803143322467804,
        0.05095888674259186,
        0.3626578152179718
      ],
      "min": [
        0.7012113332748413,
        -0.0509878508746624,
        0.3047679662704468
      ],
      "type": "VEC3"
    },
    {
      "bufferView": 2,
      "byteOffset": 930876,
      "componentType": 5126,
      "count": 1569,
      "max": [
        0.9996895790100098,
        0.999854326248169,
        0.9999619722366333
      ],
      "min": [
        -0.9999122619628906,
        -0.99992835521698,
        -0.005310295149683952
      ],
      "type": "VEC3"
    },
    {
      "bufferView": 1,
      "byteOffset": 304016,
      "componentType": 5126,
      "count": 1569,
      "max": [
        0.4637049436569214,
        0.46347010135650635
      ],
      "min": [
        0.036542296409606934,
        0.03613624721765518
      ],
      "type": "VEC2"
    },
    {
      "bufferView": 0,
      "byteOffset": 803772,
      "componentType": 5125,
      "count": 9207,
      "type": "SCALAR"
    }
  ],
  "asset": {
    "extras": {
      "author": "dylanheyes (https://sketchfab.com/dylanheyes)",
      "license": "CC-BY-4.0 (http://creativecommons.org/licenses/by/4.0/)",
      "source": "https://sketchfab.com/3d-models/apollo-smoke-detector-06e8e9490fda4ace9bc12f9d20732152",
      "title": "Apollo Smoke Detector"
    },
    "generator": "Sketchfab-13.76.0",
    "version": "2.0"
  },
  "bufferViews": [
    {
      "buffer": 0,
      "byteLength": 840600,
      "name": "floatBufferViews",
      "target": 34963
    },
    {
      "buffer": 0,
      "byteLength": 316568,
      "byteOffset": 840600,
      "byteStride": 8,
      "name": "floatBufferViews",
      "target": 34962
    },
    {
      "buffer": 0,
      "byteLength": 949704,
      "byteOffset": 1157168,
      "byteStride": 12,
      "name": "floatBufferViews",
      "target": 34962
    }
  ],
  "buffers": [
    {
      "byteLength": 2106872,
      "uri": "scene.bin"
    }
  ],
  "extensionsUsed": [
    "KHR_materials_clearcoat"
  ],
  "materials": [
    {
      "doubleSided": true,
      "extensions": {
        "KHR_materials_clearcoat": {
          "clearcoatFactor": 1.0,
          "clearcoatRoughnessFactor": 0.04
        }
      },
      "name": "Body",
      "pbrMetallicRoughness": {
        "metallicFactor": 0.0,
        "roughnessFactor": 0.314
      }
    },
    {
      "doubleSided": true,
      "name": "Trim",
      "pbrMetallicRoughness": {
        "baseColorFactor": [
          0.0,
          0.0,
          0.0,
          1.0
        ],
        "metallicFactor": 0.0
      }
    },
    {
      "doubleSided": true,
      "emissiveFactor": [
        1.0,
        0.0,
        0.0
      ],
      "name": "Light",
      "pbrMetallicRoughness": {
        "baseColorFactor": [
          1.0,
          0.004024579999999997,
          0.014443899999999926,
          1.0
        ],
        "metallicFactor": 0.0,
        "roughnessFactor": 0.17462970441323597
      }
    }
  ],
  "meshes": [
    {
      "name": "Apollo Smoke Detector_Body_0",
      "primitives": [
        {
          "attributes": {
            "NORMAL": 1,
            "POSITION": 0,
            "TEXCOORD_0": 2
          },
          "indices": 3,
          "material": 0,
          "mode": 4
        }
      ]
    },
    {
      "name": "Apollo Smoke Detector_Trim_0",
      "primitives": [
        {
          "attributes": {
            "NORMAL": 5,
            "POSITION": 4,
            "TEXCOORD_0": 6
          },
          "indices": 7,
          "material": 1,
          "mode": 4
        }
      ]
    },
    {
      "name": "Apollo Smoke Detector_Light_0",
      "primitives": [
        {
          "attributes": {
            "NORMAL": 9,
            "POSITION": 8,
            "TEXCOORD_0": 10
          },
          "indices": 11,
          "material": 2,
          "mode": 4
        }
      ]
    }
  ],
  "nodes": [
    {
      "children": [
        1
      ],
      "matrix": [
        1.0,
        0.0,
        0.0,
        0.0,
        0.0,
        2.220446049250313e-16,
        -1.0,
        0.0,
        0.0,
        1.0,
        2.220446049250313e-16,
        0.0,
        0.0,
        0.0,
        0.0,
        1.0
      ],
      "name": "Sketchfab_model"
    },
    {
      "children": [
        2
      ],
      "matrix": [
        0.009999999776482582,
        0.0,
        0.0,
        0.0,
        0.0,
        0.0,
        0.009999999776482582,
        0.0,
        0.0,
        -0.009999999776482582,
        0.0,
        0.0,
        0.0,
        0.0,
        0.0,
        1.0
      ],
      "name": "f8b177143db747909fa15beadac7416a.fbx"
    },
    {
      "children": [
        3,
        5
      ],
      "name": "RootNode"
    },
    {
      "children": [
        4
      ],
      "matrix": [
        -65.15581009765468,
        -44.527143038140764,
        -61.41704928909654,
        0.0,
        -32.40135466989878,
        89.5395708958271,
        -30.542085476036902,
        0.0,
        68.59207001076176,
        1.2755314797120858e-05,
        -72.76761921184276,
        0.0,
        735.88916015625,
        495.8309326171875,
        692.5791015625,
        1.0
      ],
      "name": "Camera"
    },
    {
      "name": "Object_4"
    },
    {
      "children": [
        6,
        7,
        8
      ],
      "matrix": [
        100.0,
        0.0,
        0.0,
        0.0,
        0.0,
        -1.629206793918314e-05,
        -99.99999999999868,
        0.0,
        0.0,
        99.99999999999868,
        -1.629206793918314e-05,
        0.0,
        0.0,
        0.0,
        0.0,
        1.0
      ],
      "name": "Apollo Smoke Detector"
    },
    {
      "mesh": 0,
      "name": "Apollo Smoke Detector_Body_0"
    },
    {
      "mesh": 1,
      "name": "Apollo Smoke Detector_Trim_0"
    },
    {
      "mesh": 2,
      "name": "Apollo Smoke Detector_Light_0"
    }
  ],
  "scene": 0,
  "scenes": [
    {
      "name": "Sketchfab_Scene",
      "nodes": [
        0
      ]
    }
  ]
}
