{
  "accessors": [
    {
      "bufferView": 2,
      "componentType": 5126,
      "count": 855,
      "max": [
        1.1733109951019287,
        -1.0160789489746094,
        0.13965100049972534
      ],
      "min": [
        -1.2039690017700195,
        -1.0160789489746094,
        -0.14625799655914307
      ],
      "type": "VEC3"
    },
    {
      "bufferView": 2,
      "byteOffset": 10260,
      "componentType": 5126,
      "count": 855,
      "max": [
        0.0,
        -0.9999999403953552,
        0.0
      ],
      "min": [
        0.0,
        -1.0,
        0.0
      ],
      "type": "VEC3"
    },
    {
      "bufferView": 1,
      "componentType": 5126,
      "count": 855,
      "max": [
        0.9394639730453491,
        0.5695189833641052
      ],
      "min": [
        0.047410998493433,
        0.43067100644111633
      ],
      "type": "VEC2"
    },
    {
      "bufferView": 0,
      "componentType": 5125,
      "count": 2757,
      "type": "SCALAR"
    },
    {
      "bufferView": 2,
      "byteOffset": 20520,
      "componentType": 5126,
      "count": 448,
      "max": [
        0.6513159871101379,
        -0.9826989769935608,
        0.0762609988451004
      ],
      "min": [
        0.05428500100970268,
        -0.9826989769935608,
        -0.08734399825334549
      ],
      "type": "VEC3"
    },
    {
      "bufferView": 2,
      "byteOffset": 25896,
      "componentType": 5126,
      "count": 448,
      "max": [
        0.0,
        1.0,
        0.0
      ],
      "min": [
        0.0,
        1.0,
        0.0
      ],
      "type": "VEC3"
    },
    {
      "bufferView": 1,
      "byteOffset": 6840,
      "componentType": 5126,
      "count": 448,
      "max": [
        0.09674900025129318,
        0.7929289937019348
      ],
      "min": [
        0.0385419987142086,
        0.7284039855003357
      ],
      "type": "VEC2"
    },
    {
      "bufferView": 0,
      "byteOffset": 11028,
      "componentType": 5125,
      "count": 1152,
      "type": "SCALAR"
    },
    {
      "bufferView": 2,
      "byteOffset": 31272,
      "componentType": 5126,
      "count": 44,
      "max": [
        1.1670299768447876,
        1.1362919807434082,
        -0.1330219954252243
      ],
      "min": [
        -1.2023370265960693,
        -1.0160789489746094,
        -0.14625799655914307
      ],
      "type": "VEC3"
    },
    {
      "bufferView": 2,
      "byteOffset": 31800,
      "componentType": 5126,
      "count": 44,
      "max": [
        0.7071217894554138,
        -0.0,
        -0.38268494606018066
      ],
      "min": [
        -0.9238789081573486,
        -0.0,
        -1.0
      ],
      "type": "VEC3"
    },
    {
      "bufferView": 1,
      "byteOffset": 10424,
      "componentType": 5126,
      "count": 44,
      "max": [
        0.7742310166358948,
        0.9252719879150391
      ],
      "min": [
        0.2500460147857666,
        0.06992100179195404
      ],
      "type": "VEC2"
    },
    {
      "bufferView": 0,
      "byteOffset": 15636,
      "componentType": 5125,
      "count": 180,
      "type": "SCALAR"
    },
    {
      "bufferView": 2,
      "byteOffset": 32328,
      "componentType": 5126,
      "count": 2430,
      "max": [
        0.8341569900512695,
        1.095958948135376,
        0.07783199846744537
      ],
      "min": [
        -1.121269941329956,
        -0.9859930276870728,
        -0.08805300295352936
      ],
      "type": "VEC3"
    },
    {
      "bufferView": 2,
      "byteOffset": 61488,
      "componentType": 5126,
      "count": 2430,
      "max": [
        1.0,
        -0.0,
        1.0
      ],
      "min": [
        -1.0,
        -1.0,
        -1.0
      ],
      "type": "VEC3"
    },
    {
      "bufferView": 1,
      "byteOffset": 10776,
      "componentType": 5126,
      "count": 2430,
      "max": [
        0.763401985168457,
        1.0
      ],
      "min": [
        0.23659799993038177,
        0.0
      ],
      "type": "VEC2"
    },
    {
      "bufferView": 0,
      "byteOffset": 16356,
      "componentType": 5125,
      "count": 4320,
      "type": "SCALAR"
    },
    {
      "bufferView": 2,
      "byteOffset": 90648,
      "componentType": 5126,
      "count": 9748,
      "max": [
        1.2051769495010376,
        1.1473579406738281,
        0.13313299417495728
      ],
      "min": [
        -1.2083549499511719,
        -1.0544459819793701,
        -0.14569100737571716
      ],
      "type": "VEC3"
    },
    {
      "bufferView": 2,
      "byteOffset": 207624,
      "componentType": 5126,
      "count": 9748,
      "max": [
        1.0,
        1.0,
        1.0
      ],
      "min": [
        -1.0,
        -1.0,
        -1.0
      ],
      "type": "VEC3"
    },
    {
      "bufferView": 1,
      "byteOffset": 30216,
      "componentType": 5126,
      "count": 9748,
      "max": [
        0.9919170141220093,
        0.9798769950866699
      ],
      "min": [
        0.017318999394774437,
        0.0
      ],
      "type": "VEC2"
    },
    {
      "bufferView": 0,
      "byteOffset": 33636,
      "componentType": 5125,
      "count": 19914,
      "type": "SCALAR"
    },
    {
      "bufferView": 2,
      "byteOffset": 324600,
      "componentType": 5126,
      "count": 3924,
      "max": [
        1.1785919666290283,
        1.1473579406738281,
        0.0790409967303276
      ],
      "min": [
        -1.2083549499511719,
        -1.0544459819793701,
        -0.13592499494552612
      ],
      "type": "VEC3"
    },
    {
      "bufferView": 2,
      "byteOffset": 371688,
      "componentType": 5126,
      "count": 3924,
      "max": [
        1.0,
        1.0,
        1.0
      ],
      "min": [
        -1.0,
        -1.0,
        -1.0
      ],
      "type": "VEC3"
    },
    {
      "bufferView": 1,
      "byteOffset": 108200,
      "componentType": 5126,
      "count": 3924,
      "max": [
        0.812201976776123,
        0.7929289937019348
      ],
      "min": [
        0.0385419987142086,
        0.0
      ],
      "type": "VEC2"
    },
    {
      "bufferView": 0,
      "byteOffset": 113292,
      "componentType": 5125,
      "count": 12834,
      "type": "SCALAR"
    },
    {
      "bufferView": 2,
      "byteOffset": 418776,
      "componentType": 5126,
      "count": 45,
      "max": [
        1.1423959732055664,
        1.1362919807434082,
        0.13965100049972534
      ],
      "min": [
        0.5943790078163147,
        1.0928239822387695,
        -0.14625799655914307
      ],
      "type": "VEC3"
    },
    {
      "bufferView": 2,
      "byteOffset": 419316,
      "componentType": 5126,
      "count": 45,
      "max": [
        0.0,
        1.0,
        0.7071067690849304
      ],
      "min": [
        -0.7071876525878906,
        0.0,
        -0.7070258855819702
      ],
      "type": "VEC3"
    },
    {
      "bufferView": 1,
      "byteOffset": 139592,
      "componentType": 5126,
      "count": 45,
      "max": [
        0.8191210031509399,
        0.5945169925689697
      ],
      "min": [
        0.06793799996376038,
        0.24942900240421295
      ],
      "type": "VEC2"
    },
    {
      "bufferView": 0,
      "byteOffset": 164628,
      "componentType": 5125,
      "count": 129,
      "type": "SCALAR"
    },
    {
      "bufferView": 2,
      "byteOffset": 419856,
      "componentType": 5126,
      "count": 3755,
      "max": [
        1.1733100414276123,
        1.2507840394973755,
        0.13965100049972534
      ],
      "min": [
        -1.2039690017700195,
        1.0928239822387695,
        -0.1467670053243637
      ],
      "type": "VEC3"
    },
    {
      "bufferView": 2,
      "byteOffset": 464916,
      "componentType": 5126,
      "count": 3755,
      "max": [
        1.0,
        1.0,
        1.0
      ],
      "min": [
        -1.0,
        -1.0,
        -1.0
      ],
      "type": "VEC3"
    },
    {
      "bufferView": 1,
      "byteOffset": 139952,
      "componentType": 5126,
      "count": 3755,
      "max": [
        0.9435989856719971,
        0.5951160192489624
      ],
      "min": [
        0.0035329998936504126,
        0.0042409999296069145
      ],
      "type": "VEC2"
    },
    {
      "bufferView": 0,
      "byteOffset": 165144,
      "componentType": 5125,
      "count": 14832,
      "type": "SCALAR"
    },
    {
      "bufferView": 2,
      "byteOffset": 509976,
      "componentType": 5126,
      "count": 334,
      "max": [
        1.1733100414276123,
        1.1362919807434082,
        0.09960299730300903
      ],
      "min": [
        -1.2039690017700195,
        -1.0160789489746094,
        -0.13997800648212433
      ],
      "type": "VEC3"
    },
    {
      "bufferView": 2,
      "byteOffset": 513984,
      "componentType": 5126,
      "count": 334,
      "max": [
        1.0,
        0.9873861074447632,
        1.0
      ],
      "min": [
        -1.0,
        -0.9873867630958557,
        -0.987385630607605
      ],
      "type": "VEC3"
    },
    {
      "bufferView": 1,
      "byteOffset": 169992,
      "componentType": 5126,
      "count": 334,
      "max": [
        0.9890549778938293,
        0.4733929932117462
      ],
      "min": [
        0.017506999894976616,
        0.374532014131546
      ],
      "type": "VEC2"
    },
    {
      "bufferView": 0,
      "byteOffset": 224472,
      "componentType": 5125,
      "count": 1578,
      "type": "SCALAR"
    },
    {
      "bufferView": 2,
      "byteOffset": 517992,
      "componentType": 5126,
      "count": 272,
      "max": [
        1.1708159446716309,
        1.1362919807434082,
        0.13965100049972534
      ],
      "min": [
        -1.2050180435180664,
        -1.0160789489746094,
        0.095489002764225
      ],
      "type": "VEC3"
    },
    {
      "bufferView": 2,
      "byteOffset": 521256,
      "componentType": 5126,
      "count": 272,
      "max": [
        1.0,
        1.0,
        0.9999997615814209
      ],
      "min": [
        -1.0,
        -1.0,
        -0.9999997615814209
      ],
      "type": "VEC3"
    },
    {
      "bufferView": 1,
      "byteOffset": 172664,
      "componentType": 5126,
      "count": 272,
      "max": [
        0.9938240051269531,
        0.9843999743461609
      ],
      "min": [
        0.25196900963783264,
        0.06486500054597855
      ],
      "type": "VEC2"
    },
    {
      "bufferView": 0,
      "byteOffset": 230784,
      "componentType": 5125,
      "count": 852,
      "type": "SCALAR"
    }
  ],
  "asset": {
    "extras": {
      "author": "CiscoIBNGmedia (https://sketchfab.com/CiscoIBNGmedia)",
      "license": "CC-BY-4.0 (http://creativecommons.org/licenses/by/4.0/)",
      "source": "https://sketchfab.com/3d-models/c8300-1n1s-4t2x-64f3ae889fda4a8f80ab229baf6060b7",
      "title": "C8300-1N1S-4T2X"
    },
    "generator": "Sketchfab-12.67.0",
    "version": "2.0"
  },
  "bufferViews": [
    {
      "buffer": 0,
      "byteLength": 234192,
      "name": "floatBufferViews",
      "target": 34963
    },
    {
      "buffer": 0,
      "byteLength": 174840,
      "byteOffset": 234192,
      "byteStride": 8,
      "name": "floatBufferViews",
      "target": 34962
    },
    {
      "buffer": 0,
      "byteLength": 524520,
      "byteOffset": 409032,
      "byteStride": 12,
      "name": "floatBufferViews",
      "target": 34962
    }
  ],
  "buffers": [
    {
      "byteLength": 933552,
      "uri": "scene.bin"
    }
  ],
  "images": [
    {
      "uri": "textures/phong10SG_baseColor.png"
    },
    {
      "uri": "textures/phong10SG_metallicRoughness.png"
    },
    {
      "uri": "textures/phong11SG_baseColor.png"
    },
    {
      "uri": "textures/phong11SG_metallicRoughness.png"
    },
    {
      "uri": "textures/phong13SG_baseColor.png"
    },
    {
      "uri": "textures/phong13SG_metallicRoughness.png"
    },
    {
      "uri": "textures/phong8SG_baseColor.png"
    },
    {
      "uri": "textures/phong8SG_metallicRoughness.png"
    },
    {
      "uri": "textures/phong9SG_baseColor.png"
    },
    {
      "uri": "textures/phong9SG_metallicRoughness.png"
    }
  ],
  "materials": [
    {
      "doubleSided": true,
      "name": "initialShadingGroup",
      "pbrMetallicRoughness": {
        "metallicFactor": 0.0,
        "roughnessFactor": 0.6
      }
    },
    {
      "doubleSided": true,
      "name": "phong10SG",
      "pbrMetallicRoughness": {
        "baseColorTexture": {
          "index": 0
        },
        "metallicRoughnessTexture": {
          "index": 1
        },
        "roughnessFactor": 0.42124199697207376
      }
    },
    {
      "doubleSided": true,
      "name": "phong11SG",
      "pbrMetallicRoughness": {
        "baseColorTexture": {
          "index": 2
        },
        "metallicRoughnessTexture": {
          "index": 3
        },
        "roughnessFactor": 0.4881239017687224
      }
    },
    {
      "doubleSided": true,
      "name": "phong12SG",
      "pbrMetallicRoughness": {
        "metallicFactor": 0.0,
        "roughnessFactor": 0.6
      }
    },
    {
      "doubleSided": true,
      "name": "phong13SG",
      "pbrMetallicRoughness": {
        "baseColorTexture": {
          "index": 4
        },
        "metallicRoughnessTexture": {
          "index": 5
        },
        "roughnessFactor": 0.6
      }
    },
    {
      "doubleSided": true,
      "name": "phong8SG",
      "pbrMetallicRoughness": {
        "baseColorTexture": {
          "index": 6
        },
        "metallicRoughnessTexture": {
          "index": 7
        },
        "roughnessFactor": 0.5002842480953857
      }
    },
    {
      "doubleSided": true,
      "name": "phong9SG",
      "pbrMetallicRoughness": {
        "baseColorTexture": {
          "index": 8
        },
        "metallicRoughnessTexture": {
          "index": 9
        },
        "roughnessFactor": 0.5306851139120442
      }
    }
  ],
  "meshes": [
    {
      "name": "Object_0",
      "primitives": [
        {
          "attributes": {
            "NORMAL": 1,
            "POSITION": 0,
            "TEXCOORD_0": 2
          },
          "indices": 3,
          "material": 1,
          "mode": 4
        }
      ]
    },
    {
      "name": "Object_1",
      "primitives": [
        {
          "attributes": {
            "NORMAL": 5,
            "POSITION": 4,
            "TEXCOORD_0": 6
          },
          "indices": 7,
          "material": 3,
          "mode": 4
        }
      ]
    },
    {
      "name": "Object_2",
      "primitives": [
        {
          "attributes": {
            "NORMAL": 9,
            "POSITION": 8,
            "TEXCOORD_0": 10
          },
          "indices": 11,
          "material": 6,
          "mode": 4
        }
      ]
    },
    {
      "name": "Object_3",
      "primitives": [
        {
          "attributes": {
            "NORMAL": 13,
            "POSITION": 12,
            "TEXCOORD_0": 14
          },
          "indices": 15,
          "material": 0,
          "mode": 4
        }
      ]
    },
    {
      "name": "Object_4",
      "primitives": [
        {
          "attributes": {
            "NORMAL": 17,
            "POSITION": 16,
            "TEXCOORD_0": 18
          },
          "indices": 19,
          "material": 1,
          "mode": 4
        }
      ]
    },
    {
      "name": "Object_5",
      "primitives": [
        {
          "attributes": {
            "NORMAL": 21,
            "POSITION": 20,
            "TEXCOORD_0": 22
          },
          "indices": 23,
          "material": 1,
          "mode": 4
        }
      ]
    },
    {
      "name": "Object_6",
      "primitives": [
        {
          "attributes": {
            "NORMAL": 25,
            "POSITION": 24,
            "TEXCOORD_0": 26
          },
          "indices": 27,
          "material": 2,
          "mode": 4
        }
      ]
    },
    {
      "name": "Object_7",
      "primitives": [
        {
          "attributes": {
            "NORMAL": 29,
            "POSITION": 28,
            "TEXCOORD_0": 30
          },
          "indices": 31,
          "material": 2,
          "mode": 4
        }
      ]
    },
    {
      "name": "Object_8",
      "primitives": [
        {
          "attributes": {
            "NORMAL": 33,
            "POSITION": 32,
            "TEXCOORD_0": 34
          },
          "indices": 35,
          "material": 4,
          "mode": 4
        }
      ]
    },
    {
      "name": "Object_9",
      "primitives": [
        {
          "attributes": {
            "NORMAL": 37,
            "POSITION": 36,
            "TEXCOORD_0": 38
          },
          "indices": 39,
          "material": 5,
          "mode": 4
        }
      ]
    }
  ],
  "nodes": [
    {
      "children": [
        1
      ],
      "matrix": [
        1.0,
        0.0,
        0.0,
        0.0,
        0.0,
        2.220446049250313e-16,
        -1.0,
        0.0,
        0.0,
        1.0,
        2.220446049250313e-16,
        0.0,
        0.0,
        0.0,
        0.0,
        1.0
      ],
      "name": "Sketchfab_model"
    },
    {
      "children": [
        2,
        3,
        4,
        5,
        6,
        7,
        8,
        9,
        10,
        11
      ],
      "name": "8300Catalyst.obj.cleaner.materialmerger.gles"
    },
    {
      "mesh": 0,
      "name": "Object_2"
    },
    {
      "mesh": 1,
      "name": "Object_3"
    },
    {
      "mesh": 2,
      "name": "Object_4"
    },
    {
      "mesh": 3,
      "name": "Object_5"
    },
    {
      "mesh": 4,
      "name": "Object_6"
    },
    {
      "mesh": 5,
      "name": "Object_7"
    },
    {
      "mesh": 6,
      "name": "Object_8"
    },
    {
      "mesh": 7,
      "name": "Object_9"
    },
    {
      "mesh": 8,
      "name": "Object_10"
    },
    {
      "mesh": 9,
      "name": "Object_11"
    }
  ],
  "samplers": [
    {
      "magFilter": 9729,
      "minFilter": 9987,
      "wrapS": 10497,
      "wrapT": 10497
    }
  ],
  "scene": 0,
  "scenes": [
    {
      "name": "Sketchfab_Scene",
      "nodes": [
        0
      ]
    }
  ],
  "textures": [
    {
      "sampler": 0,
      "source": 0
    },
    {
      "sampler": 0,
      "source": 1
    },
    {
      "sampler": 0,
      "source": 2
    },
    {
      "sampler": 0,
      "source": 3
    },
    {
      "sampler": 0,
      "source": 4
    },
    {
      "sampler": 0,
      "source": 5
    },
    {
      "sampler": 0,
      "source": 6
    },
    {
      "sampler": 0,
      "source": 7
    },
    {
      "sampler": 0,
      "source": 8
    },
    {
      "sampler": 0,
      "source": 9
    }
  ]
}
