{
  "accessors": [
    {
      "bufferView": 2,
      "componentType": 5126,
      "count": 1137,
      "max": [
        0.6380299925804138,
        0.46588999032974243,
        0.6560479998588562
      ],
      "min": [
        -0.6380299925804138,
        -0.8101710081100464,
        -0.656046986579895
      ],
      "type": "VEC3"
    },
    {
      "bufferView": 2,
      "byteOffset": 13644,
      "componentType": 5126,
      "count": 1137,
      "max": [
        1.0,
        1.0,
        1.0
      ],
      "min": [
        -1.0,
        -1.0,
        -1.0
      ],
      "type": "VEC3"
    },
    {
      "bufferView": 3,
      "componentType": 5126,
      "count": 1137,
      "max": [
        0.9990732073783875,
        0.9998089671134949,
        0.4217243790626526,
        1.0
      ],
      "min": [
        -0.9999595284461975,
        -0.99736487865448,
        -0.999941349029541,
        1.0
      ],
      "type": "VEC4"
    },
    {
      "bufferView": 1,
      "componentType": 5126,
      "count": 1137,
      "max": [
        0.8173220157623291,
        0.832414984703064
      ],
      "min": [
        0.0003852589870803058,
        0.0009749230230227113
      ],
      "type": "VEC2"
    },
    {
      "bufferView": 0,
      "componentType": 5125,
      "count": 5952,
      "type": "SCALAR"
    },
    {
      "bufferView": 2,
      "byteOffset": 27288,
      "componentType": 5126,
      "count": 144,
      "max": [
        1.0,
        0.8101710081100464,
        1.0
      ],
      "min": [
        -1.0,
        0.482481986284256,
        -1.0
      ],
      "type": "VEC3"
    },
    {
      "bufferView": 2,
      "byteOffset": 29016,
      "componentType": 5126,
      "count": 144,
      "max": [
        1.0,
        1.6292099758175027e-07,
        1.0
      ],
      "min": [
        -1.0,
        -1.0,
        -1.0
      ],
      "type": "VEC3"
    },
    {
      "bufferView": 3,
      "byteOffset": 18192,
      "componentType": 5126,
      "count": 144,
      "max": [
        0.999601423740387,
        1.2439547845133347e-06,
        1.0,
        1.0
      ],
      "min": [
        -0.9996013641357422,
        -1.0,
        -1.0,
        -1.0
      ],
      "type": "VEC4"
    },
    {
      "bufferView": 1,
      "byteOffset": 9096,
      "componentType": 5126,
      "count": 144,
      "max": [
        0.8324909806251526,
        0.635470986366272
      ],
      "min": [
        0.6503559947013855,
        0.0001923219970194623
      ],
      "type": "VEC2"
    },
    {
      "bufferView": 0,
      "byteOffset": 23808,
      "componentType": 5125,
      "count": 432,
      "type": "SCALAR"
    },
    {
      "bufferView": 2,
      "byteOffset": 30744,
      "componentType": 5126,
      "count": 707,
      "max": [
        0.8993229866027832,
        0.482481986284256,
        0.8752890229225159
      ],
      "min": [
        -0.8993229866027832,
        -0.44334501028060913,
        -0.8694900274276733
      ],
      "type": "VEC3"
    },
    {
      "bufferView": 2,
      "byteOffset": 39228,
      "componentType": 5126,
      "count": 707,
      "max": [
        0.9960002303123474,
        0.12546205520629883,
        0.9929496645927429
      ],
      "min": [
        -0.9960002303123474,
        -0.9999474883079529,
        -0.9998092651367188
      ],
      "type": "VEC3"
    },
    {
      "bufferView": 3,
      "byteOffset": 20496,
      "componentType": 5126,
      "count": 707,
      "max": [
        0.9996276497840881,
        0.909796953201294,
        0.9999474883079529,
        1.0
      ],
      "min": [
        -0.9996276497840881,
        -0.9998092651367188,
        -0.9991166591644287,
        -1.0
      ],
      "type": "VEC4"
    },
    {
      "bufferView": 1,
      "byteOffset": 10248,
      "componentType": 5126,
      "count": 707,
      "max": [
        0.8990309834480286,
        0.9998080134391785
      ],
      "min": [
        0.4015679955482483,
        0.0001923219970194623
      ],
      "type": "VEC2"
    },
    {
      "bufferView": 0,
      "byteOffset": 25536,
      "componentType": 5125,
      "count": 3456,
      "type": "SCALAR"
    }
  ],
  "asset": {
    "extras": {
      "author": "Marcin.Kwiatkowski (https://sketchfab.com/Marcin.Kwiatkowski)",
      "license": "CC-BY-4.0 (http://creativecommons.org/licenses/by/4.0/)",
      "source": "https://sketchfab.com/3d-models/ceiling-camera-1cf07a773f8e4feda7191655b1460c66",
      "title": "Ceiling Camera"
    },
    "generator": "Sketchfab-12.68.0",
    "version": "2.0"
  },
  "bufferViews": [
    {
      "buffer": 0,
      "byteLength": 39360,
      "name": "floatBufferViews",
      "target": 34963
    },
    {
      "buffer": 0,
      "byteLength": 15904,
      "byteOffset": 39360,
      "byteStride": 8,
      "name": "floatBufferViews",
      "target": 34962
    },
    {
      "buffer": 0,
      "byteLength": 47712,
      "byteOffset": 55264,
      "byteStride": 12,
      "name": "floatBufferViews",
      "target": 34962
    },
    {
      "buffer": 0,
      "byteLength": 31808,
      "byteOffset": 102976,
      "byteStride": 16,
      "name": "floatBufferViews",
      "target": 34962
    }
  ],
  "buffers": [
    {
      "byteLength": 134784,
      "uri": "scene.bin"
    }
  ],
  "images": [
    {
      "uri": "textures/M_all_baseColor.jpeg"
    },
    {
      "uri": "textures/M_all_metallicRoughness.png"
    },
    {
      "uri": "textures/M_all_normal.png"
    }
  ],
  "materials": [
    {
      "doubleSided": true,
      "name": "M_all",
      "normalTexture": {
        "index": 2
      },
      "occlusionTexture": {
        "index": 1
      },
      "pbrMetallicRoughness": {
        "baseColorTexture": {
          "index": 0
        },
        "metallicRoughnessTexture": {
          "index": 1
        }
      }
    }
  ],
  "meshes": [
    {
      "name": "defaultMaterial",
      "primitives": [
        {
          "attributes": {
            "NORMAL": 1,
            "POSITION": 0,
            "TANGENT": 2,
            "TEXCOORD_0": 3
          },
          "indices": 4,
          "material": 0,
          "mode": 4
        }
      ]
    },
    {
      "name": "defaultMaterial",
      "primitives": [
        {
          "attributes": {
            "NORMAL": 6,
            "POSITION": 5,
            "TANGENT": 7,
            "TEXCOORD_0": 8
          },
          "indices": 9,
          "material": 0,
          "mode": 4
        }
      ]
    },
    {
      "name": "defaultMaterial",
      "primitives": [
        {
          "attributes": {
            "NORMAL": 11,
            "POSITION": 10,
            "TANGENT": 12,
            "TEXCOORD_0": 13
          },
          "indices": 14,
          "material": 0,
          "mode": 4
        }
      ]
    }
  ],
  "nodes": [
    {
      "children": [
        1
      ],
      "matrix": [
        0.12204902619123459,
        0.0,
        0.0,
        0.0,
        0.0,
        2.7100327802117483e-17,
        -0.12204902619123459,
        0.0,
        0.0,
        0.12204902619123459,
        2.7100327802117483e-17,
        0.0,
        0.0,
        0.0,
        0.0,
        1.0
      ],
      "name": "Sketchfab_model"
    },
    {
      "children": [
        2,
        4,
        6
      ],
      "matrix": [
        1.0,
        0.0,
        0.0,
        0.0,
        0.0,
        -4.371139006309477e-08,
        0.999999999999999,
        0.0,
        0.0,
        -0.999999999999999,
        -4.371139006309477e-08,
        0.0,
        0.0,
        0.0,
        0.0,
        1.0
      ],
      "name": "Collada visual scene group"
    },
    {
      "children": [
        3
      ],
      "name": "eye"
    },
    {
      "mesh": 0,
      "name": "defaultMaterial"
    },
    {
      "children": [
        5
      ],
      "name": "top"
    },
    {
      "mesh": 1,
      "name": "defaultMaterial"
    },
    {
      "children": [
        7
      ],
      "name": "body"
    },
    {
      "mesh": 2,
      "name": "defaultMaterial"
    }
  ],
  "samplers": [
    {
      "magFilter": 9729,
      "minFilter": 9987,
      "wrapS": 10497,
      "wrapT": 10497
    }
  ],
  "scene": 0,
  "scenes": [
    {
      "name": "Sketchfab_Scene",
      "nodes": [
        0
      ]
    }
  ],
  "textures": [
    {
      "sampler": 0,
      "source": 0
    },
    {
      "sampler": 0,
      "source": 1
    },
    {
      "sampler": 0,
      "source": 2
    }
  ]
}
