{
	"asset":{
		"generator":"Khronos glTF Blender I/O v3.6.27",
		"version":"2.0"
	},
	"extensionsUsed":[
		"KHR_materials_ior",
		"KHR_materials_specular"
	],
	"scene":0,
	"scenes":[
		{
			"name":"Scene",
			"nodes":[
				0,
				1,
				2,
				3,
				4,
				5,
				6
			]
		}
	],
	"nodes":[
		{
			"mesh":0,
			"name":"pdu_cuerpo.018",
			"translation":[
				-0.054663658142089844,
				0.2515612840652466,
				6.575372695922852
			]
		},
		{
			"mesh":1,
			"name":"enchufe_seis",
			"translation":[
				-0.054663658142089844,
				0.27113282680511475,
				10.334882736206055
			]
		},
		{
			"mesh":2,
			"name":"enchufes_aleman",
			"translation":[
				-0.054663658142089844,
				0.27113282680511475,
				7.743751049041748
			]
		},
		{
			"mesh":3,
			"name":"schuko_lo",
			"translation":[
				-1.0821168422698975,
				0.12399199604988098,
				10.834925651550293
			]
		},
		{
			"mesh":4,
			"name":"schuko_lo_patas",
			"translation":[
				-1.082116961479187,
				0.12399199604988098,
				11.316545486450195
			]
		},
		{
			"mesh":5,
			"name":"openetics_serigrafia.017",
			"rotation":[
				-0.5000001192092896,
				0.49999988079071045,
				0.5,
				0.5000000596046448
			],
			"scale":[
				4.979931831359863,
				4.979931831359863,
				4.979931831359863
			],
			"translation":[
				-0.08836214244365692,
				0.2528497576713562,
				3.8827695846557617
			]
		},
		{
			"mesh":6,
			"name":"NurbsPath.001",
			"rotation":[
				0,
				0.7071068286895752,
				0,
				0.7071067094802856
			],
			"translation":[
				-1.0821168422698975,
				0.12399199604988098,
				10.834925651550293
			]
		}
	],
	"materials":[
		{
			"doubleSided":true,
			"extensions":{
				"KHR_materials_specular":{
					"specularColorFactor":[
						0,
						0,
						0
					]
				},
				"KHR_materials_ior":{
					"ior":1.4500000476837158
				}
			},
			"name":"pdu_bake",
			"pbrMetallicRoughness":{
				"baseColorTexture":{
					"index":0
				},
				"metallicFactor":0,
				"roughnessFactor":0.5
			}
		},
		{
			"doubleSided":true,
			"extensions":{
				"KHR_materials_specular":{
					"specularColorFactor":[
						0,
						0,
						0
					]
				},
				"KHR_materials_ior":{
					"ior":1.4500000476837158
				}
			},
			"name":"pdu_bake.001",
			"pbrMetallicRoughness":{
				"baseColorTexture":{
					"index":1
				},
				"metallicFactor":0,
				"roughnessFactor":0.5
			}
		},
		{
			"doubleSided":true,
			"extensions":{
				"KHR_materials_specular":{
					"specularColorFactor":[
						0.711407312601205,
						0.711407312601205,
						0.711407312601205
					]
				},
				"KHR_materials_ior":{
					"ior":1.4500000476837158
				}
			},
			"name":"schuko_lo",
			"normalTexture":{
				"index":2
			},
			"pbrMetallicRoughness":{
				"baseColorTexture":{
					"index":3
				},
				"metallicFactor":0,
				"roughnessFactor":0.44545453786849976
			}
		},
		{
			"doubleSided":true,
			"extensions":{
				"KHR_materials_specular":{
					"specularColorFactor":[
						0.7452837772592048,
						0.7452837772592048,
						0.7452837772592048
					]
				},
				"KHR_materials_ior":{
					"ior":1.4500000476837158
				}
			},
			"name":"cromo_amarillo.002",
			"pbrMetallicRoughness":{
				"baseColorFactor":[
					0.8000000715255737,
					0.6779475808143616,
					0.3526736795902252,
					1
				],
				"metallicFactor":0.7333333492279053,
				"roughnessFactor":0.13809522986412048
			}
		},
		{
			"alphaCutoff":0.5,
			"alphaMode":"MASK",
			"doubleSided":true,
			"name":"openetics.001",
			"pbrMetallicRoughness":{
				"baseColorTexture":{
					"index":4
				}
			}
		},
		{
			"doubleSided":true,
			"extensions":{
				"KHR_materials_specular":{
					"specularColorFactor":[
						0.4291027808462088,
						0.4291027808462088,
						0.4291027808462088
					]
				},
				"KHR_materials_ior":{
					"ior":1.4500000476837158
				}
			},
			"name":"enchufe_770_hembra",
			"pbrMetallicRoughness":{
				"baseColorFactor":[
					0.03038971498608589,
					0.03038971498608589,
					0.03038971498608589,
					1
				],
				"metallicFactor":0.2142857164144516,
				"roughnessFactor":0.4047619104385376
			}
		}
	],
	"meshes":[
		{
			"name":"Plane.040",
			"primitives":[
				{
					"attributes":{
						"POSITION":0,
						"NORMAL":1,
						"TEXCOORD_0":2
					},
					"indices":3,
					"material":0
				}
			]
		},
		{
			"name":"Plane.041",
			"primitives":[
				{
					"attributes":{
						"POSITION":4,
						"NORMAL":5,
						"TEXCOORD_0":6
					},
					"indices":7,
					"material":1
				}
			]
		},
		{
			"name":"Plane.042",
			"primitives":[
				{
					"attributes":{
						"POSITION":8,
						"NORMAL":9,
						"TEXCOORD_0":10
					},
					"indices":11,
					"material":1
				}
			]
		},
		{
			"name":"Circle.036",
			"primitives":[
				{
					"attributes":{
						"POSITION":12,
						"NORMAL":13,
						"TEXCOORD_0":14
					},
					"indices":15,
					"material":2
				}
			]
		},
		{
			"name":"Circle.037",
			"primitives":[
				{
					"attributes":{
						"POSITION":16,
						"NORMAL":17,
						"TEXCOORD_0":18
					},
					"indices":19,
					"material":3
				}
			]
		},
		{
			"name":"Plane.035",
			"primitives":[
				{
					"attributes":{
						"POSITION":20,
						"NORMAL":21,
						"TEXCOORD_0":22
					},
					"indices":23,
					"material":4
				}
			]
		},
		{
			"name":"NurbsPath.003",
			"primitives":[
				{
					"attributes":{
						"POSITION":24,
						"NORMAL":25,
						"TEXCOORD_0":26
					},
					"indices":27,
					"material":5
				}
			]
		}
	],
	"textures":[
		{
			"sampler":0,
			"source":0
		},
		{
			"sampler":0,
			"source":0
		},
		{
			"sampler":0,
			"source":1
		},
		{
			"sampler":0,
			"source":2
		},
		{
			"sampler":0,
			"source":3
		}
	],
	"images":[
		{
			"bufferView":4,
			"mimeType":"image/png",
			"name":"Pdu_bake"
		},
		{
			"bufferView":17,
			"mimeType":"image/png",
			"name":"schuko_lo_normal"
		},
		{
			"bufferView":18,
			"mimeType":"image/png",
			"name":"schuko_lo"
		},
		{
			"bufferView":27,
			"mimeType":"image/png",
			"name":"OPENETICS_"
		}
	],
	"accessors":[
		{
			"bufferView":0,
			"componentType":5126,
			"count":634,
			"max":[
				0.2273414134979248,
				0,
				4.874578475952148
			],
			"min":[
				-0.2273414134979248,
				-0.3163616955280304,
				-3.8737497329711914
			],
			"type":"VEC3"
		},
		{
			"bufferView":1,
			"componentType":5126,
			"count":634,
			"type":"VEC3"
		},
		{
			"bufferView":2,
			"componentType":5126,
			"count":634,
			"type":"VEC2"
		},
		{
			"bufferView":3,
			"componentType":5123,
			"count":2994,
			"type":"SCALAR"
		},
		{
			"bufferView":5,
			"componentType":5126,
			"count":208,
			"max":[
				0.13758058845996857,
				0,
				1.0474891662597656
			],
			"min":[
				-0.13758058845996857,
				-0.019096681848168373,
				-4.749162673950195
			],
			"type":"VEC3"
		},
		{
			"bufferView":6,
			"componentType":5126,
			"count":208,
			"type":"VEC3"
		},
		{
			"bufferView":7,
			"componentType":5126,
			"count":208,
			"type":"VEC2"
		},
		{
			"bufferView":8,
			"componentType":5123,
			"count":624,
			"type":"SCALAR"
		},
		{
			"bufferView":9,
			"componentType":5126,
			"count":208,
			"max":[
				0.14852462708950043,
				0.001166878966614604,
				1.0474891662597656
			],
			"min":[
				-0.14852462708950043,
				-0.019096681848168373,
				-2.905510187149048
			],
			"type":"VEC3"
		},
		{
			"bufferView":10,
			"componentType":5126,
			"count":208,
			"type":"VEC3"
		},
		{
			"bufferView":11,
			"componentType":5126,
			"count":208,
			"type":"VEC2"
		},
		{
			"bufferView":12,
			"componentType":5123,
			"count":624,
			"type":"SCALAR"
		},
		{
			"bufferView":13,
			"componentType":5126,
			"count":701,
			"max":[
				0.20798692107200623,
				0.2510896921157837,
				0.5687920451164246
			],
			"min":[
				-0.20798692107200623,
				-0.21963268518447876,
				-0.3927556574344635
			],
			"type":"VEC3"
		},
		{
			"bufferView":14,
			"componentType":5126,
			"count":701,
			"type":"VEC3"
		},
		{
			"bufferView":15,
			"componentType":5126,
			"count":701,
			"type":"VEC2"
		},
		{
			"bufferView":16,
			"componentType":5123,
			"count":3588,
			"type":"SCALAR"
		},
		{
			"bufferView":19,
			"componentType":5126,
			"count":171,
			"max":[
				0.07805365324020386,
				0.06013328582048416,
				0.07674222439527512
			],
			"min":[
				-0.07805365324020386,
				-0.10354113578796387,
				-0.20787902176380157
			],
			"type":"VEC3"
		},
		{
			"bufferView":20,
			"componentType":5126,
			"count":171,
			"type":"VEC3"
		},
		{
			"bufferView":21,
			"componentType":5126,
			"count":171,
			"type":"VEC2"
		},
		{
			"bufferView":22,
			"componentType":5123,
			"count":882,
			"type":"SCALAR"
		},
		{
			"bufferView":23,
			"componentType":5126,
			"count":4,
			"max":[
				0.09678882360458374,
				0.09678888320922852,
				0
			],
			"min":[
				-0.09678882360458374,
				-0.09678888320922852,
				0
			],
			"type":"VEC3"
		},
		{
			"bufferView":24,
			"componentType":5126,
			"count":4,
			"type":"VEC3"
		},
		{
			"bufferView":25,
			"componentType":5126,
			"count":4,
			"type":"VEC2"
		},
		{
			"bufferView":26,
			"componentType":5123,
			"count":6,
			"type":"SCALAR"
		},
		{
			"bufferView":28,
			"componentType":5126,
			"count":188,
			"max":[
				9.13448429107666,
				0.03400000184774399,
				0.9985924363136292
			],
			"min":[
				0.11818671226501465,
				-0.06402606517076492,
				-0.03400062397122383
			],
			"type":"VEC3"
		},
		{
			"bufferView":29,
			"componentType":5126,
			"count":188,
			"type":"VEC3"
		},
		{
			"bufferView":30,
			"componentType":5126,
			"count":188,
			"type":"VEC2"
		},
		{
			"bufferView":31,
			"componentType":5123,
			"count":948,
			"type":"SCALAR"
		}
	],
	"bufferViews":[
		{
			"buffer":0,
			"byteLength":7608,
			"byteOffset":0,
			"target":34962
		},
		{
			"buffer":0,
			"byteLength":7608,
			"byteOffset":7608,
			"target":34962
		},
		{
			"buffer":0,
			"byteLength":5072,
			"byteOffset":15216,
			"target":34962
		},
		{
			"buffer":0,
			"byteLength":5988,
			"byteOffset":20288,
			"target":34963
		},
		{
			"buffer":0,
			"byteLength":1939522,
			"byteOffset":26276
		},
		{
			"buffer":0,
			"byteLength":2496,
			"byteOffset":1965800,
			"target":34962
		},
		{
			"buffer":0,
			"byteLength":2496,
			"byteOffset":1968296,
			"target":34962
		},
		{
			"buffer":0,
			"byteLength":1664,
			"byteOffset":1970792,
			"target":34962
		},
		{
			"buffer":0,
			"byteLength":1248,
			"byteOffset":1972456,
			"target":34963
		},
		{
			"buffer":0,
			"byteLength":2496,
			"byteOffset":1973704,
			"target":34962
		},
		{
			"buffer":0,
			"byteLength":2496,
			"byteOffset":1976200,
			"target":34962
		},
		{
			"buffer":0,
			"byteLength":1664,
			"byteOffset":1978696,
			"target":34962
		},
		{
			"buffer":0,
			"byteLength":1248,
			"byteOffset":1980360,
			"target":34963
		},
		{
			"buffer":0,
			"byteLength":8412,
			"byteOffset":1981608,
			"target":34962
		},
		{
			"buffer":0,
			"byteLength":8412,
			"byteOffset":1990020,
			"target":34962
		},
		{
			"buffer":0,
			"byteLength":5608,
			"byteOffset":1998432,
			"target":34962
		},
		{
			"buffer":0,
			"byteLength":7176,
			"byteOffset":2004040,
			"target":34963
		},
		{
			"buffer":0,
			"byteLength":267852,
			"byteOffset":2011216
		},
		{
			"buffer":0,
			"byteLength":671679,
			"byteOffset":2279068
		},
		{
			"buffer":0,
			"byteLength":2052,
			"byteOffset":2950748,
			"target":34962
		},
		{
			"buffer":0,
			"byteLength":2052,
			"byteOffset":2952800,
			"target":34962
		},
		{
			"buffer":0,
			"byteLength":1368,
			"byteOffset":2954852,
			"target":34962
		},
		{
			"buffer":0,
			"byteLength":1764,
			"byteOffset":2956220,
			"target":34963
		},
		{
			"buffer":0,
			"byteLength":48,
			"byteOffset":2957984,
			"target":34962
		},
		{
			"buffer":0,
			"byteLength":48,
			"byteOffset":2958032,
			"target":34962
		},
		{
			"buffer":0,
			"byteLength":32,
			"byteOffset":2958080,
			"target":34962
		},
		{
			"buffer":0,
			"byteLength":12,
			"byteOffset":2958112,
			"target":34963
		},
		{
			"buffer":0,
			"byteLength":17231,
			"byteOffset":2958124
		},
		{
			"buffer":0,
			"byteLength":2256,
			"byteOffset":2975356,
			"target":34962
		},
		{
			"buffer":0,
			"byteLength":2256,
			"byteOffset":2977612,
			"target":34962
		},
		{
			"buffer":0,
			"byteLength":1504,
			"byteOffset":2979868,
			"target":34962
		},
		{
			"buffer":0,
			"byteLength":1896,
			"byteOffset":2981372,
			"target":34963
		}
	],
	"samplers":[
		{
			"magFilter":9729,
			"minFilter":9987
		}
	],
	"buffers":[
		{
			"byteLength":2983268,
			"uri":"data:application/octet-stream;base64,"
		}
	]
}
