{
  "accessors": [
    {
      "bufferView": 2,
      "componentType": 5126,
      "count": 6660,
      "max": [
        0.05872873589396477,
        0.025095943361520767,
        0.05872873589396477
      ],
      "min": [
        -0.05872873589396477,
        -0.05540173873305321,
        -0.05872873589396477
      ],
      "type": "VEC3"
    },
    {
      "bufferView": 2,
      "byteOffset": 79920,
      "componentType": 5126,
      "count": 6660,
      "max": [
        1.0,
        1.0,
        1.0
      ],
      "min": [
        -1.0,
        -1.0,
        -1.0
      ],
      "type": "VEC3"
    },
    {
      "bufferView": 1,
      "componentType": 5126,
      "count": 6660,
      "max": [
        1.0000001192092896,
        0.9824941754341125
      ],
      "min": [
        0.0,
        -9.046111517818645e-05
      ],
      "type": "VEC2"
    },
    {
      "bufferView": 0,
      "componentType": 5125,
      "count": 29814,
      "type": "SCALAR"
    },
    {
      "bufferView": 2,
      "byteOffset": 159840,
      "componentType": 5126,
      "count": 16112,
      "max": [
        0.031208019703626633,
        0.01559620164334774,
        0.031208017840981483
      ],
      "min": [
        -0.031208015978336334,
        0.0,
        -0.031208017840981483
      ],
      "type": "VEC3"
    },
    {
      "bufferView": 2,
      "byteOffset": 353184,
      "componentType": 5126,
      "count": 16112,
      "max": [
        1.0,
        0.9998134970664978,
        1.0
      ],
      "min": [
        -1.0,
        -1.0,
        -1.0
      ],
      "type": "VEC3"
    },
    {
      "bufferView": 1,
      "byteOffset": 53280,
      "componentType": 5126,
      "count": 16112,
      "max": [
        0.0,
        0.0
      ],
      "min": [
        0.0,
        0.0
      ],
      "type": "VEC2"
    },
    {
      "bufferView": 1,
      "byteOffset": 182176,
      "componentType": 5126,
      "count": 16112,
      "max": [
        0.5312080383300781,
        0.5312080383300781
      ],
      "min": [
        0.46879199147224426,
        0.46879199147224426
      ],
      "type": "VEC2"
    },
    {
      "bufferView": 0,
      "byteOffset": 119256,
      "componentType": 5125,
      "count": 43764,
      "type": "SCALAR"
    },
    {
      "bufferView": 2,
      "byteOffset": 546528,
      "componentType": 5126,
      "count": 64,
      "max": [
        0.03999994695186615,
        -0.017036931589245796,
        0.03999994695186615
      ],
      "min": [
        -0.03999994695186615,
        -0.017036931589245796,
        -0.03999994695186615
      ],
      "type": "VEC3"
    },
    {
      "bufferView": 2,
      "byteOffset": 547296,
      "componentType": 5126,
      "count": 64,
      "max": [
        3.189643749124116e-08,
        1.0,
        -0.0
      ],
      "min": [
        3.189643393852748e-08,
        1.0,
        -0.0
      ],
      "type": "VEC3"
    },
    {
      "bufferView": 1,
      "byteOffset": 311072,
      "componentType": 5126,
      "count": 64,
      "max": [
        0.49000000953674316,
        0.49000000953674316
      ],
      "min": [
        0.01000000536441803,
        0.01000000536441803
      ],
      "type": "VEC2"
    },
    {
      "bufferView": 1,
      "byteOffset": 311584,
      "componentType": 5126,
      "count": 64,
      "max": [
        0.49000000953674316,
        0.49000000953674316
      ],
      "min": [
        0.01000000536441803,
        0.01000000536441803
      ],
      "type": "VEC2"
    },
    {
      "bufferView": 0,
      "byteOffset": 294312,
      "componentType": 5125,
      "count": 186,
      "type": "SCALAR"
    },
    {
      "bufferView": 2,
      "byteOffset": 548064,
      "componentType": 5126,
      "count": 192,
      "max": [
        0.03999994695186615,
        1.0659277904778719e-08,
        0.03999994322657585
      ],
      "min": [
        -0.03999994695186615,
        -0.015494998544454575,
        -0.03999995067715645
      ],
      "type": "VEC3"
    },
    {
      "bufferView": 2,
      "byteOffset": 550368,
      "componentType": 5126,
      "count": 192,
      "max": [
        1.0,
        9.966682057438447e-08,
        1.0
      ],
      "min": [
        -1.0,
        -1.0,
        -1.0
      ],
      "type": "VEC3"
    },
    {
      "bufferView": 1,
      "byteOffset": 312096,
      "componentType": 5126,
      "count": 192,
      "max": [
        0.9803877472877502,
        0.49000000953674316
      ],
      "min": [
        0.01000000536441803,
        0.01000000536441803
      ],
      "type": "VEC2"
    },
    {
      "bufferView": 1,
      "byteOffset": 313632,
      "componentType": 5126,
      "count": 192,
      "max": [
        0.9803877472877502,
        0.49000000953674316
      ],
      "min": [
        0.01000000536441803,
        0.01000000536441803
      ],
      "type": "VEC2"
    },
    {
      "bufferView": 0,
      "byteOffset": 295056,
      "componentType": 5125,
      "count": 570,
      "type": "SCALAR"
    },
    {
      "bufferView": 2,
      "byteOffset": 552672,
      "componentType": 5126,
      "count": 64,
      "max": [
        0.02984686940908432,
        -0.0015596066368743777,
        0.02984686754643917
      ],
      "min": [
        -0.029846863821148872,
        -0.0015596261946484447,
        -0.02984686754643917
      ],
      "type": "VEC3"
    },
    {
      "bufferView": 2,
      "byteOffset": 553440,
      "componentType": 5126,
      "count": 64,
      "max": [
        2.115748465314482e-09,
        1.0,
        3.256846525800938e-07
      ],
      "min": [
        2.115748243269877e-09,
        1.0,
        3.2568459573667496e-07
      ],
      "type": "VEC3"
    },
    {
      "bufferView": 1,
      "byteOffset": 315168,
      "componentType": 5126,
      "count": 64,
      "max": [
        0.9803877472877502,
        0.4803880751132965
      ],
      "min": [
        0.5196113586425781,
        0.019611572846770287
      ],
      "type": "VEC2"
    },
    {
      "bufferView": 1,
      "byteOffset": 315680,
      "componentType": 5126,
      "count": 64,
      "max": [
        0.9803877472877502,
        0.4803880751132965
      ],
      "min": [
        0.5196113586425781,
        0.019611572846770287
      ],
      "type": "VEC2"
    },
    {
      "bufferView": 0,
      "byteOffset": 297336,
      "componentType": 5125,
      "count": 186,
      "type": "SCALAR"
    },
    {
      "bufferView": 2,
      "byteOffset": 554208,
      "componentType": 5126,
      "count": 1846,
      "max": [
        0.03999994695186615,
        1.31258275359869e-08,
        0.03999994695186615
      ],
      "min": [
        -0.03999994695186615,
        -0.04043123498558998,
        -0.03999995067715645
      ],
      "type": "VEC3"
    },
    {
      "bufferView": 2,
      "byteOffset": 576360,
      "componentType": 5126,
      "count": 1846,
      "max": [
        0.9994567036628723,
        1.0,
        0.9994568228721619
      ],
      "min": [
        -0.9994567632675171,
        -0.9909303784370422,
        -0.9994568824768066
      ],
      "type": "VEC3"
    },
    {
      "bufferView": 3,
      "componentType": 5126,
      "count": 1846,
      "max": [
        0.9855096340179443,
        0.9994470477104187,
        0.9988171458244324,
        1.0
      ],
      "min": [
        -0.25552845001220703,
        -0.9992687106132507,
        -0.6037626266479492,
        1.0
      ],
      "type": "VEC4"
    },
    {
      "bufferView": 1,
      "byteOffset": 316192,
      "componentType": 5126,
      "count": 1846,
      "max": [
        1.0,
        1.0
      ],
      "min": [
        0.0,
        0.0
      ],
      "type": "VEC2"
    },
    {
      "bufferView": 1,
      "byteOffset": 330960,
      "componentType": 5126,
      "count": 1846,
      "max": [
        1.0000064373016357,
        1.0000001192092896
      ],
      "min": [
        -6.46740500087617e-06,
        0.014805790968239307
      ],
      "type": "VEC2"
    },
    {
      "bufferView": 1,
      "byteOffset": 345728,
      "componentType": 5126,
      "count": 1846,
      "max": [
        1.0000064373016357,
        1.0000001192092896
      ],
      "min": [
        -6.46740500087617e-06,
        0.014805790968239307
      ],
      "type": "VEC2"
    },
    {
      "bufferView": 1,
      "byteOffset": 360496,
      "componentType": 5126,
      "count": 1846,
      "max": [
        1.0000064373016357,
        1.0000001192092896
      ],
      "min": [
        -6.46740500087617e-06,
        0.014805790968239307
      ],
      "type": "VEC2"
    },
    {
      "bufferView": 1,
      "byteOffset": 375264,
      "componentType": 5126,
      "count": 1846,
      "max": [
        1.0000064373016357,
        1.0000001192092896
      ],
      "min": [
        -6.46740500087617e-06,
        0.014805790968239307
      ],
      "type": "VEC2"
    },
    {
      "bufferView": 0,
      "byteOffset": 298080,
      "componentType": 5125,
      "count": 6714,
      "type": "SCALAR"
    },
    {
      "bufferView": 2,
      "byteOffset": 598512,
      "componentType": 5126,
      "count": 512,
      "max": [
        0.04026496782898903,
        -0.015466970391571522,
        0.04026496782898903
      ],
      "min": [
        -0.04026496782898903,
        -0.017036933451890945,
        -0.04026496782898903
      ],
      "type": "VEC3"
    },
    {
      "bufferView": 2,
      "byteOffset": 604656,
      "componentType": 5126,
      "count": 512,
      "max": [
        0.9914412498474121,
        0.9909159541130066,
        0.9914408922195435
      ],
      "min": [
        -0.9914414882659912,
        -0.9909159541130066,
        -0.9914398789405823
      ],
      "type": "VEC3"
    },
    {
      "bufferView": 1,
      "byteOffset": 390032,
      "componentType": 5126,
      "count": 512,
      "max": [
        0.49000000953674316,
        0.49000000953674316
      ],
      "min": [
        0.01000000536441803,
        0.01000000536441803
      ],
      "type": "VEC2"
    },
    {
      "bufferView": 1,
      "byteOffset": 394128,
      "componentType": 5126,
      "count": 512,
      "max": [
        0.49000000953674316,
        0.49000000953674316
      ],
      "min": [
        0.01000000536441803,
        0.01000000536441803
      ],
      "type": "VEC2"
    },
    {
      "bufferView": 0,
      "byteOffset": 324936,
      "componentType": 5125,
      "count": 3060,
      "type": "SCALAR"
    }
  ],
  "asset": {
    "extras": {
      "author": "YouniqueĪdeaStudio (https://sketchfab.com/sinnervoncrawsz)",
      "license": "CC-BY-4.0 (http://creativecommons.org/licenses/by/4.0/)",
      "source": "https://sketchfab.com/3d-models/fire-alarm-horn-and-light-1ab1e118f6d4403da8ad9d0b29d9c629",
      "title": "FIRE ALARM HORN AND LIGHT"
    },
    "generator": "Sketchfab-14.5.0",
    "version": "2.0"
  },
  "bufferViews": [
    {
      "buffer": 0,
      "byteLength": 337176,
      "name": "floatBufferViews",
      "target": 34963
    },
    {
      "buffer": 0,
      "byteLength": 398224,
      "byteOffset": 337176,
      "byteStride": 8,
      "name": "floatBufferViews",
      "target": 34962
    },
    {
      "buffer": 0,
      "byteLength": 610800,
      "byteOffset": 735400,
      "byteStride": 12,
      "name": "floatBufferViews",
      "target": 34962
    },
    {
      "buffer": 0,
      "byteLength": 29536,
      "byteOffset": 1346200,
      "byteStride": 16,
      "name": "floatBufferViews",
      "target": 34962
    }
  ],
  "buffers": [
    {
      "byteLength": 1375736,
      "uri": "scene.bin"
    }
  ],
  "extensionsUsed": [
    "KHR_materials_clearcoat",
    "KHR_texture_transform"
  ],
  "images": [
    {
      "uri": "textures/Car_paint_matt_rough.005_metallicRoughness.png"
    },
    {
      "uri": "textures/Car_paint_matt_rough.005_normal.png"
    }
  ],
  "materials": [
    {
      "doubleSided": true,
      "extensions": {
        "KHR_materials_clearcoat": {
          "clearcoatFactor": 0.24366610699411306,
          "clearcoatRoughnessFactor": 0.0
        }
      },
      "name": "Material",
      "pbrMetallicRoughness": {
        "baseColorFactor": [
          0.4926362637838201,
          0.0,
          0.0022799492845388602,
          1.0
        ],
        "metallicFactor": 0.0,
        "roughnessFactor": 0.02232794305242984
      }
    },
    {
      "alphaMode": "BLEND",
      "doubleSided": true,
      "extensions": {
        "KHR_materials_clearcoat": {
          "clearcoatFactor": 0.7096411889766041,
          "clearcoatRoughnessFactor": 0.0
        }
      },
      "name": "Material.003",
      "pbrMetallicRoughness": {
        "baseColorFactor": [
          0.7511899361957002,
          0.004246034557768905,
          0.0,
          0.8494337135713513
        ],
        "metallicFactor": 0.0,
        "roughnessFactor": 0.0
      }
    },
    {
      "doubleSided": true,
      "name": "Material.004",
      "pbrMetallicRoughness": {
        "baseColorFactor": [
          0.8,
          0.0,
          0.0294331,
          1.0
        ],
        "metallicFactor": 0.0,
        "roughnessFactor": 0.5
      }
    },
    {
      "doubleSided": true,
      "emissiveFactor": [
        1.0,
        0.0,
        0.0
      ],
      "name": "Material.001",
      "pbrMetallicRoughness": {
        "baseColorFactor": [
          0.11494621313494345,
          0.0,
          0.0005409888733349075,
          1.0
        ],
        "metallicFactor": 0.0,
        "roughnessFactor": 0.5
      }
    },
    {
      "doubleSided": true,
      "name": "Material.002",
      "pbrMetallicRoughness": {
        "baseColorFactor": [
          0.8,
          0.8,
          0.8,
          1.0
        ],
        "metallicFactor": 0.0,
        "roughnessFactor": 0.5
      }
    },
    {
      "doubleSided": true,
      "name": "Car_paint_matt_rough.005",
      "normalTexture": {
        "extensions": {
          "KHR_texture_transform": {
            "scale": [
              -1.6864000420808667,
              -1.6864000420808667
            ]
          }
        },
        "index": 1,
        "scale": 0.08057482830024122
      },
      "pbrMetallicRoughness": {
        "baseColorFactor": [
          0.39968475533389164,
          0.0,
          0.0,
          1.0
        ],
        "metallicRoughnessTexture": {
          "extensions": {
            "KHR_texture_transform": {
              "offset": [
                0,
                -1
              ],
              "scale": [
                2,
                2
              ]
            }
          },
          "index": 0
        },
        "roughnessFactor": 0.5057770906092642
      }
    },
    {
      "doubleSided": true,
      "name": "Material.005",
      "pbrMetallicRoughness": {
        "baseColorFactor": [
          0.0,
          0.0,
          0.0,
          1.0
        ],
        "metallicFactor": 0.0,
        "roughnessFactor": 0.12717233649849033
      }
    }
  ],
  "meshes": [
    {
      "name": "Object_0",
      "primitives": [
        {
          "attributes": {
            "NORMAL": 1,
            "POSITION": 0,
            "TEXCOORD_0": 2
          },
          "indices": 3,
          "material": 0,
          "mode": 4
        }
      ]
    },
    {
      "name": "Object_1",
      "primitives": [
        {
          "attributes": {
            "NORMAL": 5,
            "POSITION": 4,
            "TEXCOORD_0": 6,
            "TEXCOORD_1": 7
          },
          "indices": 8,
          "material": 1,
          "mode": 4
        }
      ]
    },
    {
      "name": "Object_2",
      "primitives": [
        {
          "attributes": {
            "NORMAL": 10,
            "POSITION": 9,
            "TEXCOORD_0": 11,
            "TEXCOORD_1": 12
          },
          "indices": 13,
          "material": 2,
          "mode": 4
        }
      ]
    },
    {
      "name": "Object_3",
      "primitives": [
        {
          "attributes": {
            "NORMAL": 15,
            "POSITION": 14,
            "TEXCOORD_0": 16,
            "TEXCOORD_1": 17
          },
          "indices": 18,
          "material": 3,
          "mode": 4
        }
      ]
    },
    {
      "name": "Object_4",
      "primitives": [
        {
          "attributes": {
            "NORMAL": 20,
            "POSITION": 19,
            "TEXCOORD_0": 21,
            "TEXCOORD_1": 22
          },
          "indices": 23,
          "material": 4,
          "mode": 4
        }
      ]
    },
    {
      "name": "Object_5",
      "primitives": [
        {
          "attributes": {
            "NORMAL": 25,
            "POSITION": 24,
            "TANGENT": 26,
            "TEXCOORD_0": 27,
            "TEXCOORD_1": 28,
            "TEXCOORD_2": 29,
            "TEXCOORD_3": 30,
            "TEXCOORD_4": 31
          },
          "indices": 32,
          "material": 5,
          "mode": 4
        }
      ]
    },
    {
      "name": "Object_6",
      "primitives": [
        {
          "attributes": {
            "NORMAL": 34,
            "POSITION": 33,
            "TEXCOORD_0": 35,
            "TEXCOORD_1": 36
          },
          "indices": 37,
          "material": 6,
          "mode": 4
        }
      ]
    }
  ],
  "nodes": [
    {
      "children": [
        1
      ],
      "matrix": [
        1.0,
        0.0,
        0.0,
        0.0,
        0.0,
        2.220446049250313e-16,
        -1.0,
        0.0,
        0.0,
        1.0,
        2.220446049250313e-16,
        0.0,
        0.0,
        0.0,
        0.0,
        1.0
      ],
      "name": "Sketchfab_model"
    },
    {
      "children": [
        2
      ],
      "name": "root"
    },
    {
      "children": [
        3,
        5,
        10
      ],
      "matrix": [
        1.0,
        0.0,
        0.0,
        0.0,
        0.0,
        2.220446049250313e-16,
        1.0,
        0.0,
        0.0,
        -1.0,
        2.220446049250313e-16,
        0.0,
        0.0,
        0.0,
        0.0,
        1.0
      ],
      "name": "GLTF_SceneRootNode"
    },
    {
      "children": [
        4
      ],
      "matrix": [
        8.429369480200677e-08,
        -0.9999999999999966,
        -0.0,
        0.0,
        0.9999999999999966,
        8.429369480200677e-08,
        0.0,
        0.0,
        0.0,
        0.0,
        1.0,
        0.0,
        0.029933901503682137,
        0.15658630430698395,
        0.0,
        1.0
      ],
      "name": "Cube.001_0"
    },
    {
      "mesh": 0,
      "name": "Object_4"
    },
    {
      "children": [
        6,
        7,
        8,
        9
      ],
      "matrix": [
        8.429369480200677e-08,
        -0.9999999999999966,
        -0.0,
        0.0,
        0.9999999999999966,
        8.429369480200677e-08,
        0.0,
        0.0,
        0.0,
        0.0,
        1.0,
        0.0,
        0.014963405206799507,
        0.03955432027578354,
        0.0,
        1.0
      ],
      "name": "Circle.001_1"
    },
    {
      "mesh": 1,
      "name": "Object_6"
    },
    {
      "mesh": 2,
      "name": "Object_7"
    },
    {
      "mesh": 3,
      "name": "Object_8"
    },
    {
      "mesh": 4,
      "name": "Object_9"
    },
    {
      "children": [
        11,
        12
      ],
      "matrix": [
        8.429369480200677e-08,
        -0.9999999999999966,
        -0.0,
        0.0,
        0.9999999999999966,
        8.429369480200677e-08,
        0.0,
        0.0,
        0.0,
        0.0,
        1.0,
        0.0,
        0.014963405206799507,
        0.03955432027578354,
        0.0,
        1.0
      ],
      "name": "Circle.002_2"
    },
    {
      "mesh": 5,
      "name": "Object_11"
    },
    {
      "mesh": 6,
      "name": "Object_12"
    }
  ],
  "samplers": [
    {
      "magFilter": 9729,
      "minFilter": 9987,
      "wrapS": 10497,
      "wrapT": 10497
    }
  ],
  "scene": 0,
  "scenes": [
    {
      "name": "Sketchfab_Scene",
      "nodes": [
        0
      ]
    }
  ],
  "textures": [
    {
      "sampler": 0,
      "source": 0
    },
    {
      "sampler": 0,
      "source": 1
    }
  ]
}
